<svg width="32" height="32" viewBox="0 0 32 32" fill="none" xmlns="http://www.w3.org/2000/svg">
<path d="M20.2934 8.04001L23.6667 5.45334L19.4134 5.33334L18 1.33334L16.5867 5.33334L12.3334 5.45334L15.7067 8.04001L14.4934 12.12L18 9.70668L21.5067 12.12L20.2934 8.04001Z" fill="black"/>
<path d="M26.1467 16.3333L28.3333 14.6667L25.5867 14.6L24.6667 12L23.7467 14.6L21 14.6667L23.1867 16.3333L22.4 18.9733L24.6667 17.4133L26.9333 18.9733L26.1467 16.3333Z" fill="black"/>
<path d="M9.33333 8.00001C9.33333 16.1067 15.8933 22.6667 24 22.6667C24.7067 22.6667 25.4 22.6133 26.08 22.52C23.9333 25.8133 20.2267 28 16 28C9.37333 28 4 22.6267 4 16C4 11.7733 6.18667 8.06668 9.48 5.92001C9.38667 6.60001 9.33333 7.29335 9.33333 8.00001Z" fill="black" stroke="black" stroke-width="2" stroke-linecap="round" stroke-linejoin="round"/>
</svg>
