<svg width="220" height="186" viewBox="0 0 220 186" fill="none" xmlns="http://www.w3.org/2000/svg">
<mask id="mask0_90_132" style="mask-type:alpha" maskUnits="userSpaceOnUse" x="0" y="0" width="220" height="186">
<rect width="220" height="186" fill="#D9D9D9"/>
</mask>
<g mask="url(#mask0_90_132)">
<path d="M58.6668 153.837C45.3644 153.837 34.0436 149.921 24.7043 142.087C15.365 134.254 10.6953 124.716 10.6953 113.474C10.6953 103.632 14.4124 94.9233 21.8466 87.3464C29.2823 79.7707 38.7545 75.1537 50.2632 73.4952C53.3784 61.3626 60.5345 51.4626 71.7316 43.7952C82.9302 36.1266 95.7879 32.2923 110.305 32.2923C127.314 32.2923 141.7 37.4693 153.464 47.8233C165.229 58.1786 171.112 70.6109 171.112 85.1202V88.6406C181.806 88.598 190.846 91.7283 198.229 98.0317C205.613 104.335 209.305 112.055 209.305 121.191C209.305 130.146 205.511 137.826 197.924 144.231C190.336 150.635 181.246 153.837 170.654 153.837H58.6668Z" fill="white"/>
</g>
</svg>
