<svg width="227" height="262" viewBox="0 0 227 262" fill="none" xmlns="http://www.w3.org/2000/svg">
<mask id="mask0_90_246" style="mask-type:alpha" maskUnits="userSpaceOnUse" x="0" y="0" width="227" height="262">
<rect width="227" height="262" fill="#D9D9D9"/>
</mask>
<g mask="url(#mask0_90_246)">
<path d="M35.4686 195.408C31.4284 195.408 27.9225 193.694 24.951 190.264C21.9795 186.832 20.4937 182.786 20.4937 178.125V52.037C20.4937 47.3738 21.9795 43.3273 24.951 39.8977C27.9225 36.4662 31.4284 34.7505 35.4686 34.7505H191.531C195.571 34.7505 199.077 36.4662 202.049 39.8977C205.02 43.3273 206.506 47.3738 206.506 52.037V178.125C206.506 182.786 205.02 186.832 202.049 190.264C199.077 193.694 195.571 195.408 191.531 195.408H35.4686ZM11.0354 227.067V209.783H215.964V227.067H11.0354Z" fill="#ED7A7A"/>
</g>
</svg>
