<svg width="176" height="178" viewBox="0 0 176 178" fill="none" xmlns="http://www.w3.org/2000/svg">
<mask id="mask0_90_250" style="mask-type:alpha" maskUnits="userSpaceOnUse" x="0" y="0" width="176" height="178">
<rect width="176" height="178" fill="#D9D9D9"/>
</mask>
<g mask="url(#mask0_90_250)">
<path d="M102.056 161.93V139.526L142.45 98.8586C143.529 97.8079 144.723 97.0353 146.03 96.5409C147.338 96.0464 148.646 95.7992 149.954 95.7992C151.38 95.7992 152.747 96.0619 154.055 96.5872C155.363 97.1126 156.556 97.921 157.635 99.0125L164.419 105.904C165.449 106.981 166.211 108.177 166.705 109.492C167.197 110.809 167.444 112.136 167.444 113.475C167.444 114.814 167.186 116.17 166.672 117.545C166.156 118.918 165.364 120.127 164.294 121.172L124.208 161.93H102.056ZM149.998 120.675L156.781 113.443L149.998 106.583L143.031 113.629L149.998 120.675ZM27.4999 147.097C24.3673 147.097 21.6491 145.932 19.3452 143.601C17.0413 141.271 15.8894 138.522 15.8894 135.354V42.6458C15.8894 39.4777 17.0413 36.7286 19.3452 34.3985C21.6491 32.0684 24.3673 30.9034 27.4999 30.9034H76.5104L88.1227 42.6458H148.5C151.632 42.6458 154.351 43.8109 156.655 46.1409C158.958 48.4722 160.11 51.2213 160.11 54.3883V86.4357C158.298 85.4876 156.419 84.8386 154.473 84.4888C152.528 84.1378 150.548 84.0036 148.531 84.0865C145.923 84.3127 143.407 84.9511 140.983 86.0018C138.56 87.0525 136.339 88.5976 134.323 90.6372L90.4437 134.644V147.097H27.4999Z" fill="#1CFFAF" fill-opacity="0.984314"/>
</g>
</svg>
