<svg width="153" height="148" viewBox="0 0 153 148" fill="none" xmlns="http://www.w3.org/2000/svg">
<mask id="mask0_90_254" style="mask-type:alpha" maskUnits="userSpaceOnUse" x="0" y="0" width="153" height="148">
<rect width="153" height="148" fill="#D9D9D9"/>
</mask>
<g mask="url(#mask0_90_254)">
<path d="M23.9065 134.638C21.1833 134.638 18.8203 133.67 16.8175 131.732C14.8146 129.795 13.8132 127.509 13.8132 124.875V53.6499C13.8132 51.0157 14.8146 48.7299 16.8175 46.7926C18.8203 44.8552 21.1833 43.8865 23.9065 43.8865H61.3867V23.0478C61.3867 20.4506 62.3886 18.1741 64.3925 16.2182C66.3964 14.2624 68.7604 13.2844 71.4847 13.2844H81.5811C84.2682 13.2844 86.6211 14.2624 88.6398 16.2182C90.6586 18.1741 91.6679 20.4506 91.6679 23.0478V43.8865H129.094C131.817 43.8865 134.18 44.8552 136.183 46.7926C138.186 48.7299 139.187 51.0157 139.187 53.6499V124.875C139.187 127.509 138.186 129.795 136.183 131.732C134.18 133.67 131.817 134.638 129.094 134.638H23.9065ZM37.9315 109.663H75.4372V107.505C75.4372 105.69 74.9638 104.054 74.0171 102.598C73.0694 101.141 71.8077 100.139 70.232 99.5916C67.2389 98.5813 64.7516 97.8834 62.7701 97.498C60.7874 97.1126 58.8473 96.9198 56.9497 96.9198C54.8778 96.9198 52.7262 97.1382 50.495 97.5751C48.2637 98.0119 45.8115 98.684 43.1382 99.5916C41.5615 100.174 40.2998 101.181 39.3531 102.61C38.4053 104.041 37.9315 105.672 37.9315 107.505V109.663ZM89.9945 99.7966H116.237V91.8832H89.9945V99.7966ZM56.9369 91.8832C59.3892 91.8832 61.4568 91.0738 63.1398 89.4551C64.8217 87.8353 65.6627 85.8394 65.6627 83.4673C65.6627 81.0952 64.8255 79.0956 63.151 77.4686C61.4775 75.8417 59.4147 75.0282 56.9624 75.0282C54.5102 75.0282 52.4431 75.8376 50.7611 77.4563C49.0792 79.0761 48.2382 81.0715 48.2382 83.4426C48.2382 85.8147 49.075 87.8148 50.7484 89.4428C52.4229 91.0697 54.4857 91.8832 56.9369 91.8832ZM89.9945 82.4282H116.237V74.5133H89.9945V82.4282ZM71.4799 56.7332H81.5731V23.0478H71.4799V56.7332Z" fill="#8D86B3"/>
</g>
</svg>
