<svg width="150" height="148" viewBox="0 0 150 148" fill="none" xmlns="http://www.w3.org/2000/svg">
<mask id="mask0_90_244" style="mask-type:alpha" maskUnits="userSpaceOnUse" x="0" y="0" width="150" height="148">
<rect width="150" height="147.039" fill="#D9D9D9"/>
</mask>
<g mask="url(#mask0_90_244)">
<path d="M137.5 134.786L112.5 110.28H50C46.5625 110.28 43.6198 109.08 41.1719 106.68C38.724 104.281 37.5 101.396 37.5 98.0263V91.8997H106.25C109.688 91.8997 112.63 90.6999 115.078 88.3003C117.526 85.9007 118.75 83.016 118.75 79.6464V36.7599H125C128.438 36.7599 131.38 37.9597 133.828 40.3593C136.276 42.7589 137.5 45.6435 137.5 49.0132V134.786ZM25 74.5919L32.3437 67.3931H93.75V24.5066H25V74.5919ZM12.5 104.153V24.5066C12.5 21.1369 13.724 18.2523 16.1719 15.8527C18.6198 13.4531 21.5625 12.2533 25 12.2533H93.75C97.1875 12.2533 100.13 13.4531 102.578 15.8527C105.026 18.2523 106.25 21.1369 106.25 24.5066V67.3931C106.25 70.7628 105.026 73.6474 102.578 76.047C100.13 78.4466 97.1875 79.6464 93.75 79.6464H37.5L12.5 104.153Z" fill="#95BEB1"/>
</g>
</svg>
