<svg width="32" height="32" viewBox="0 0 32 32" fill="none" xmlns="http://www.w3.org/2000/svg">
<rect x="1" y="1" width="30" height="30" rx="4" fill="black" stroke="black" stroke-width="2"/>
<path d="M18.8352 8.45455H20.5966L18.8636 18.9091C18.7121 19.8371 18.4233 20.6207 17.9972 21.2599C17.5758 21.8944 17.036 22.3774 16.3778 22.7088C15.7244 23.0355 14.9716 23.1989 14.1193 23.1989C13.3049 23.1989 12.6042 23.0521 12.017 22.7585C11.4299 22.465 10.9991 22.0483 10.7244 21.5085C10.4498 20.9687 10.3693 20.3295 10.483 19.5909H12.1591C12.1023 20.017 12.1473 20.384 12.294 20.6918C12.4408 20.9948 12.6728 21.2292 12.9901 21.3949C13.312 21.5559 13.6979 21.6364 14.1477 21.6364C14.6686 21.6364 15.1326 21.5275 15.5398 21.3097C15.9517 21.0871 16.2926 20.7652 16.5625 20.3438C16.8371 19.9176 17.0265 19.4015 17.1307 18.7955L18.8352 8.45455Z" fill="#00D9FF"/>
</svg>
