<svg width="32" height="32" viewBox="0 0 32 32" fill="none" xmlns="http://www.w3.org/2000/svg">
<path d="M26.6667 29.3333C27.0065 29.3337 27.3334 29.4638 27.5805 29.6971C27.8276 29.9304 27.9763 30.2492 27.9962 30.5885C28.0161 30.9277 27.9058 31.2618 27.6876 31.5224C27.4695 31.783 27.1601 31.9505 26.8227 31.9906L26.6667 32H5.33333C4.99349 31.9996 4.66662 31.8695 4.41951 31.6362C4.17239 31.4029 4.02369 31.084 4.00377 30.7448C3.98385 30.4055 4.09423 30.0715 4.31235 29.8109C4.53047 29.5502 4.83987 29.3828 5.17733 29.3426L5.33333 29.3333H26.6667ZM26.6667 20C27.0203 20 27.3594 20.1404 27.6095 20.3905C27.8595 20.6405 28 20.9797 28 21.3333C28 21.6869 27.8595 22.0261 27.6095 22.2761C27.3594 22.5262 27.0203 22.6666 26.6667 22.6666H5.33333C4.97971 22.6666 4.64057 22.5262 4.39052 22.2761C4.14048 22.0261 4 21.6869 4 21.3333C4 20.9797 4.14048 20.6405 4.39052 20.3905C4.64057 20.1404 4.97971 20 5.33333 20H26.6667ZM26.6667 10.6666C27.0203 10.6666 27.3594 10.8071 27.6095 11.0572C27.8595 11.3072 28 11.6463 28 12C28 12.3536 27.8595 12.6927 27.6095 12.9428C27.3594 13.1928 27.0203 13.3333 26.6667 13.3333H5.33333C4.97971 13.3333 4.64057 13.1928 4.39052 12.9428C4.14048 12.6927 4 12.3536 4 12C4 11.6463 4.14048 11.3072 4.39052 11.0572C4.64057 10.8071 4.97971 10.6666 5.33333 10.6666H26.6667Z" fill="black"/>
</svg>
