<svg width="70" height="70" viewBox="0 0 70 70" fill="none" xmlns="http://www.w3.org/2000/svg">
<mask id="mask0_131_154" style="mask-type:alpha" maskUnits="userSpaceOnUse" x="0" y="0" width="70" height="70">
<rect width="70" height="70" fill="#D9D9D9"/>
</mask>
<g mask="url(#mask0_131_154)">
<path d="M20.4142 58.3334V26.1771C20.4142 24.5729 20.9976 23.2118 22.1642 22.0938C23.3309 20.9757 24.7163 20.4167 26.3205 20.4167H58.3309C59.9351 20.4167 61.3083 20.9879 62.4507 22.1302C63.5931 23.2726 64.1642 24.6459 64.1642 26.25V49.5834L49.5809 64.1667H26.2476C24.6434 64.1667 23.2701 63.5955 22.1278 62.4531C20.9854 61.3108 20.4142 59.9375 20.4142 58.3334ZM5.90383 18.2292C5.61216 16.625 5.92813 15.1788 6.85174 13.8906C7.77536 12.6025 9.03925 11.8125 10.6434 11.5209L42.2892 5.90627C43.8934 5.6146 45.3396 5.93058 46.6278 6.85419C47.916 7.7778 48.7059 9.04169 48.9976 10.6459L49.7267 14.5834H43.7476L43.2372 11.6667L11.6642 17.2813L14.5809 33.7604V54.1042C13.8031 53.6667 13.1347 53.0834 12.5757 52.3542C12.0167 51.625 11.6642 50.7986 11.5184 49.875L5.90383 18.2292ZM26.2476 26.25V58.3334H46.6642V46.6667H58.3309V26.25H26.2476Z" fill="#1C1B1F"/>
</g>
</svg>
