<svg width="60" height="60" viewBox="0 0 60 60" fill="none" xmlns="http://www.w3.org/2000/svg">
<path d="M15.4142 53.3334V21.1771C15.4142 19.5729 15.9976 18.2118 17.1642 17.0938C18.3309 15.9757 19.7163 15.4167 21.3205 15.4167H53.3309C54.9351 15.4167 56.3083 15.9879 57.4507 17.1302C58.5931 18.2726 59.1642 19.6459 59.1642 21.25V44.5834L44.5809 59.1667H21.2476C19.6434 59.1667 18.2701 58.5955 17.1278 57.4531C15.9854 56.3108 15.4142 54.9375 15.4142 53.3334ZM0.903828 13.2292C0.612161 11.625 0.928134 10.1788 1.85174 8.89065C2.77536 7.60245 4.03925 6.81252 5.64341 6.52085L37.2892 0.90627C38.8934 0.614603 40.3396 0.930575 41.6278 1.85419C42.916 2.7778 43.7059 4.04169 43.9976 5.64585L44.7267 9.58335H38.7476L38.2372 6.66669L6.66425 12.2813L9.58091 28.7604V49.1042C8.80313 48.6667 8.13473 48.0834 7.5757 47.3542C7.01668 46.625 6.66425 45.7986 6.51841 44.875L0.903828 13.2292ZM21.2476 21.25V53.3334H41.6642V41.6667H53.3309V21.25H21.2476Z" fill="white"/>
</svg>
