<svg width="24" height="24" viewBox="0 0 24 24" fill="none" xmlns="http://www.w3.org/2000/svg">
<path d="M20.083 10.5L21.285 11.221C21.3591 11.2654 21.4205 11.3282 21.4631 11.4034C21.5058 11.4786 21.5282 11.5636 21.5282 11.65C21.5282 11.7364 21.5058 11.8214 21.4631 11.8965C21.4205 11.9717 21.3591 12.0346 21.285 12.079L12 17.649L2.71498 12.079C2.64082 12.0346 2.57944 11.9717 2.53682 11.8965C2.4942 11.8214 2.4718 11.7364 2.4718 11.65C2.4718 11.5636 2.4942 11.4786 2.53682 11.4034C2.57944 11.3282 2.64082 11.2654 2.71498 11.221L3.91698 10.5L12 15.35L20.083 10.5ZM20.083 15.2L21.285 15.921C21.3591 15.9654 21.4205 16.0282 21.4631 16.1034C21.5058 16.1786 21.5282 16.2636 21.5282 16.35C21.5282 16.4364 21.5058 16.5214 21.4631 16.5965C21.4205 16.6717 21.3591 16.7346 21.285 16.779L12.515 22.041C12.3594 22.1344 12.1814 22.1838 12 22.1838C11.8185 22.1838 11.6405 22.1344 11.485 22.041L2.71498 16.779C2.64082 16.7346 2.57944 16.6717 2.53682 16.5965C2.4942 16.5214 2.4718 16.4364 2.4718 16.35C2.4718 16.2636 2.4942 16.1786 2.53682 16.1034C2.57944 16.0282 2.64082 15.9654 2.71498 15.921L3.91698 15.2L12 20.05L20.083 15.2ZM12.514 1.30899L21.285 6.57099C21.3591 6.61538 21.4205 6.67823 21.4631 6.75342C21.5058 6.82861 21.5282 6.91356 21.5282 6.99999C21.5282 7.08641 21.5058 7.17136 21.4631 7.24655C21.4205 7.32174 21.3591 7.38459 21.285 7.42899L12 12.999L2.71498 7.42999C2.64082 7.38559 2.57944 7.32274 2.53682 7.24755C2.4942 7.17236 2.4718 7.08741 2.4718 7.00099C2.4718 6.91456 2.4942 6.82961 2.53682 6.75442C2.57944 6.67923 2.64082 6.61638 2.71498 6.57199L11.485 1.30999C11.6405 1.21654 11.8185 1.16718 12 1.16718C12.1814 1.16718 12.3594 1.21654 12.515 1.30999" fill="white"/>
</svg>
