<svg width="70" height="70" viewBox="0 0 70 70" fill="none" xmlns="http://www.w3.org/2000/svg">
<path fill-rule="evenodd" clip-rule="evenodd" d="M35.029 0C15.6588 0 0 16.0416 0 35.8872C0 51.7509 10.0332 65.1792 23.9518 69.9319C25.692 70.2892 26.3294 69.1597 26.3294 68.2096C26.3294 67.3776 26.2721 64.5259 26.2721 61.5545C16.5279 63.6939 14.4987 57.2765 14.4987 57.2765C12.9328 53.1174 10.6125 52.0484 10.6125 52.0484C7.42324 49.85 10.8448 49.85 10.8448 49.85C14.3826 50.0877 16.2389 53.5337 16.2389 53.5337C19.3701 58.9995 24.4157 57.4552 26.4456 56.5043C26.7353 54.1871 27.6638 52.5829 28.6497 51.6919C20.878 50.8599 12.7012 47.7704 12.7012 33.9856C12.7012 30.0641 14.0922 26.8558 16.2963 24.3606C15.9485 23.4696 14.7303 19.7851 16.6447 14.8538C16.6447 14.8538 19.6024 13.903 26.2714 18.5375C29.1266 17.752 32.0711 17.3524 35.029 17.349C37.9866 17.349 41.0017 17.7653 43.7858 18.5375C50.4555 13.903 53.4132 14.8538 53.4132 14.8538C55.3276 19.7851 54.1087 23.4696 53.7609 24.3606C56.0231 26.8558 57.3568 30.0641 57.3568 33.9856C57.3568 47.7704 49.1799 50.8001 41.3501 51.6919C42.6264 52.8206 43.7278 54.9593 43.7278 58.3462C43.7278 63.1587 43.6704 67.0211 43.6704 68.2089C43.6704 69.1597 44.3085 70.2892 46.048 69.9326C59.9667 65.1785 69.9998 51.7509 69.9998 35.8872C70.0572 16.0416 54.341 0 35.029 0Z" fill="white"/>
</svg>
